<?xml version="1.0" encoding="UTF-8" standalone="no"?>
<!-- Created with Inkscape (http://www.inkscape.org/) -->

<svg
   version="1.1"
   id="svg2"
   xml:space="preserve"
   width="96"
   height="96"
   viewBox="0 0 96 96"
   sodipodi:docname="favicon.eps"
   xmlns:inkscape="http://www.inkscape.org/namespaces/inkscape"
   xmlns:sodipodi="http://sodipodi.sourceforge.net/DTD/sodipodi-0.dtd"
   xmlns="http://www.w3.org/2000/svg"
   xmlns:svg="http://www.w3.org/2000/svg"><defs
     id="defs6" /><sodipodi:namedview
     id="namedview4"
     pagecolor="#ffffff"
     bordercolor="#666666"
     borderopacity="1.0"
     inkscape:pageshadow="2"
     inkscape:pageopacity="0.0"
     inkscape:pagecheckerboard="0" /><g
     id="g8"
     inkscape:groupmode="layer"
     inkscape:label="ink_ext_XXXXXX"
     transform="matrix(1.3333333,0,0,-1.3333333,0,96)"><g
       id="g10"
       transform="scale(0.1)"><path
         d="m 280.422,349.871 1.469,2.359 1.539,2.809 1.48,2.84 1.371,2.93 1.309,2.91 1.18,3.043 1.128,3.066 0.93,3.152 0.91,3.122 0.782,3.238 0.589,3.211 0.551,3.258 0.442,3.363 0.269,3.328 0.207,3.43 0.07,4.172 -0.437,8.628 -1.383,9.25 -2.34,8.961 -3.16,8.579 -3.898,8.16 -4.719,7.691 -5.352,7.129 -5.929,6.602 -6.641,5.957 -7.168,5.363 -7.633,4.656 -8.168,3.922 -8.558,3.18 -9.012,2.3 -9.211,1.43 -8.277,0.442 H 32.3008 l 169.2382,-266.961 78.883,124.48"
         style="fill:#737779;fill-opacity:1;fill-rule:nonzero;stroke:none"
         id="path12" /><path
         d="m 92.1289,531.211 0.2227,-2.633 0.3672,-2.547 0.4023,-2.621 0.5078,-2.57 0.6094,-2.5 0.1914,-0.871 H 445.609 l 0.063,-0.059 c 18.168,-0.512 32.777,-15.5 32.777,-33.789 v -1.781 l 0.492,-0.328 c 68.028,-6.692 130.457,-5.864 129.899,-82.051 h -0.09 c -4.719,5.801 -13.219,9.66 -22.809,9.66 h -0.929 l -89.481,0.5 C 440.609,409.879 379.922,333.23 327.898,250.148 l -33.789,-53.918 32.801,-51.781 2.11,-3.199 2.71,-3.59 2.961,-3.582 3.297,-3.367 3.364,-3.16 3.617,-2.981 3.859,-2.742 3.981,-2.457 4.14,-2.223 4.301,-2 4.551,-1.707 4.551,-1.41 4.726,-1.101 4.891,-0.84 4.89,-0.5 4.95,-0.11 4.98,0.11 4.93,0.5 4.832,0.84 4.738,1.101 4.551,1.41 4.539,1.707 4.34,2 4.172,2.223 3.961,2.457 3.82,2.742 3.609,2.981 3.43,3.219 3.23,3.308 2.969,3.582 2.61,3.399 2.152,3.242 223.75,352.969 1.137,1.921 1.281,2.2 1.199,2.32 1.063,2.25 1.046,2.379 0.911,2.39 0.882,2.481 0.778,2.43 0.722,2.48 0.571,2.598 0.547,2.531 0.402,2.672 0.289,2.637 0.238,2.613 0.192,2.656 0.019,3.313 -0.32,6.949 -1.117,7.32 -1.813,7.121 -2.57,6.828 -3.098,6.5 -3.691,6.051 -4.34,5.711 -4.719,5.25 -5.23,4.758 -5.672,4.242 -6.09,3.707 -6.48,3.141 -6.821,2.531 -7.148,1.809 -7.32,1.101 -6.622,0.36 H 165.109 l -6.718,-0.36 -7.313,-1.101 -7.168,-1.809 -6.851,-2.531 -6.411,-3.141 -6.117,-3.707 -5.711,-4.223 -5.23,-4.777 -4.719,-5.25 -4.281,-5.672 -3.692,-6.09 -3.1363,-6.5 -2.4804,-6.828 -1.8829,-7.121 -1.1171,-7.32 -0.3321,-7.012 0.0391,-3.25 0.1406,-2.617"
         style="fill:#f08223;fill-opacity:1;fill-rule:nonzero;stroke:none"
         id="path14" /></g></g></svg>
